<svg width="24" height="24" viewBox="0 0 24 24" fill="none" xmlns="http://www.w3.org/2000/svg">
<path d="M4 14C2.89455 14 2 13.1055 2 12C2 10.8945 2.89455 10 4 10C5.10545 10 6 10.8945 6 12C6 13.1055 5.10545 14 4 14Z" fill="white"/>
<path d="M12 14C10.8945 14 10 13.1055 10 12C10 10.8945 10.8945 10 12 10C13.1055 10 14 10.8945 14 12C14 13.1055 13.1055 14 12 14Z" fill="white"/>
<path d="M20 14C18.8945 14 18 13.1055 18 12C18 10.8945 18.8945 10 20 10C21.1055 10 22 10.8945 22 12C22 13.1055 21.1055 14 20 14Z" fill="white"/>
</svg>
